<!-- Instagram -->
<svg xmlns="http://www.w3.org/2000/svg" viewBox="0 0 24 24" width="24" height="24" fill="currentColor">
  <path d="M12 2.163c3.204 0 3.584.012 4.85.07 1.17.054 1.97.24 2.428.402a4.92 4.92 0 0 1 1.758 1.007 4.92 4.92 0 0 1 1.007 1.758c.162.458.348 1.258.402 2.428.058 1.266.07 1.645.07 4.85s-.012 3.584-.07 4.85c-.054 1.17-.24 1.97-.402 2.428a4.92 4.92 0 0 1-1.007 1.758 4.92 4.92 0 0 1-1.758 1.007c-.458.162-1.258.348-2.428.402-1.266.058-1.645.07-4.85.07s-3.584-.012-4.85-.07c-1.17-.054-1.97-.24-2.428-.402a4.902 4.902 0 0 1-1.758-1.007 4.902 4.902 0 0 1-1.007-1.758c-.162-.458-.348-1.258-.402-2.428C2.175 15.747 2.163 15.368 2.163 12s.012-3.584.07-4.85c.054-1.17.24-1.97.402-2.428a4.92 4.92 0 0 1 1.007-1.758 4.92 4.92 0 0 1 1.758-1.007c.458-.162 1.258-.348 2.428-.402C8.416 2.175 8.796 2.163 12 2.163zm0-2.163C8.741 0 8.332.013 7.052.072 5.772.131 4.785.345 4.005.72 3.212 1.102 2.567 1.644 2.014 2.197.146 4.065 0 6.616 0 12c0 5.384.146 7.935 2.014 9.803.553.553 1.198 1.095 1.991 1.377.78.375 1.767.589 3.047.648 1.28.059 1.689.072 4.948.072s3.668-.013 4.948-.072c1.28-.059 2.267-.273 3.047-.648.793-.282 1.438-.824 1.991-1.377C23.854 19.935 24 17.384 24 12s-.146-7.935-2.014-9.803c-.553-.553-1.198-1.095-1.991-1.377C18.267.345 17.28.131 16 .072 14.719.013 14.309 0 12 0z"/>
  <path d="M12 5.838a6.162 6.162 0 1 0 0 12.324 6.162 6.162 0 0 0 0-12.324zm0 10.162a3.999 3.999 0 1 1 0-7.998 3.999 3.999 0 0 1 0 7.998z"/>
  <circle cx="18.406" cy="5.594" r="1.44"/>
</svg>
